<?xml version="1.0" encoding="UTF-8" standalone="no"?>
<!-- Created with Inkscape (http://www.inkscape.org/) -->

<svg
   xmlns:dc="http://purl.org/dc/elements/1.1/"
   xmlns:cc="http://creativecommons.org/ns#"
   xmlns:rdf="http://www.w3.org/1999/02/22-rdf-syntax-ns#"
   xmlns:svg="http://www.w3.org/2000/svg"
   xmlns="http://www.w3.org/2000/svg"
   xmlns:sodipodi="http://sodipodi.sourceforge.net/DTD/sodipodi-0.dtd"
   xmlns:inkscape="http://www.inkscape.org/namespaces/inkscape"
   height="47.425743mm"
   width="158.52332mm"
   viewBox="0 0 561.69679 168.04397"
   id="svg3192"
   version="1.1"
   inkscape:version="0.91 r13725"
   sodipodi:docname="mustang.svg"
   inkscape:export-filename="/home/algot/Documents/runeman.org/clipart/mustang.png"
   inkscape:export-xdpi="48.068638"
   inkscape:export-ydpi="48.068638">
  <title
     id="title3222">Mustang Sportscar</title>
  <defs
     id="defs3198" />
  <sodipodi:namedview
     pagecolor="#ffffff"
     bordercolor="#666666"
     borderopacity="1"
     objecttolerance="10"
     gridtolerance="10"
     guidetolerance="10"
     inkscape:pageopacity="0"
     inkscape:pageshadow="2"
     inkscape:window-width="1366"
     inkscape:window-height="712"
     id="namedview3196"
     showgrid="false"
     fit-margin-top="0"
     fit-margin-left="0"
     fit-margin-right="0"
     fit-margin-bottom="0"
     inkscape:zoom="1.0884915"
     inkscape:cx="288.57264"
     inkscape:cy="49.550469"
     inkscape:window-x="0"
     inkscape:window-y="0"
     inkscape:window-maximized="1"
     inkscape:current-layer="svg3192" />
  <metadata
     id="metadata3194">
    <rdf:RDF>
      <cc:Work
         rdf:about="">
        <dc:format>image/svg+xml</dc:format>
        <dc:type
           rdf:resource="http://purl.org/dc/dcmitype/StillImage" />
        <dc:title>Mustang Sportscar</dc:title>
        <dc:date>2017-09-10</dc:date>
        <dc:creator>
          <cc:Agent>
            <dc:title>Algot Runeman</dc:title>
          </cc:Agent>
        </dc:creator>
        <dc:rights>
          <cc:Agent>
            <dc:title>Algot Runeman</dc:title>
          </cc:Agent>
        </dc:rights>
        <dc:publisher>
          <cc:Agent>
            <dc:title>runeman.org</dc:title>
          </cc:Agent>
        </dc:publisher>
        <dc:identifier>mustang.svg</dc:identifier>
        <cc:license
           rdf:resource="http://creativecommons.org/publicdomain/zero/1.0/" />
      </cc:Work>
      <cc:License
         rdf:about="http://creativecommons.org/publicdomain/zero/1.0/">
        <cc:permits
           rdf:resource="http://creativecommons.org/ns#Reproduction" />
        <cc:permits
           rdf:resource="http://creativecommons.org/ns#Distribution" />
        <cc:permits
           rdf:resource="http://creativecommons.org/ns#DerivativeWorks" />
      </cc:License>
    </rdf:RDF>
  </metadata>
  <path
     style="fill:#000000;fill-rule:evenodd;stroke:#000000;stroke-width:1px;stroke-linecap:butt;stroke-linejoin:miter;stroke-opacity:1"
     d="m 1.5794422,136.55763 10.7339698,-5.00918 -1.4312,-10.01837 3.57799,-3.57799 -2.86239,-2.1468 -2.1467998,-13.59636 4.2935898,-5.724767 c 0,0 -5.7289498,-12.66764 -3.57799,-18.60555 1.15465,-3.1875 7.871583,-6.44038 7.871583,-6.44038 0,0 16.34756,-6.38502 24.33033,-10.01837 6.79639,-3.09337 12.81715,-6.11118 20.03674,-8.01838 39.260525,-10.37145 121.651655,-8.44038 121.651655,-8.44038 l 1.4312,-0.7156 2.14679,1.4312 c 0,0 39.19979,-20.86244 59.39463,-30.05511 7.49855,-3.41333 14.95106,-7.1331701 22.89914,-9.3027801 12.56174,-3.42901 25.6278,-5.30224 38.64229,-5.72478005 20.3332,-0.66015 40.66585,2.27969005 60.82583,5.00918005 8.90105,1.20513 17.73854,2.93115 26.47712,5.0091901 19.31694,4.59358 57.24784,16.45875 57.24784,16.45875 l 55.10105,15.74316 23.61473,0.7156 7.15598,-5.00919 c 0,0 5.61972,5.66324 5.72478,9.30277 0.10162,3.52043 -5.00918,9.30278 -5.00918,9.30278 l 15.02756,20.03674 2.14679,2.1468 0.7156,9.30277 -2.1468,8.58718 c 0,0 6.12317,8.199117 5.72479,12.880747 -0.7292,8.56945 -14.31196,21.46794 -14.31196,21.46794 l -54.38545,11.44957 -4.29358,-16.45875 c 0,0 -7.77031,-13.60852 -14.31197,-27.908317 -2.96032,-6.47114 -6.17876,-7.62625 -12.88076,-10.01837 -16.25739,-5.8027 -28.45915,-4.14837 -41.50468,7.15598 -10.88948,9.436057 -15.74316,31.486297 -15.74316,31.486297 l -5.00919,17.17435 c 0,0 -143.86875,7.37662 -245.4501,4.29359 -9.5993,-0.29134 -7.15598,-27.90832 -7.15598,-27.90832 0,0 -8.36714,-23.842887 -21.46794,-30.770707 -11.17783,-5.91093 -24.6288,-5.9612 -35.779895,0 -11.78771,6.30151 -22.18354,25.761517 -22.18354,25.761517 l -2.86239,27.90832 -12.16516,2.1468 0,2.14679 -20.75235,0 -5.00918,-6.44038 z"
     id="path3155"
     inkscape:connector-curvature="0"
     sodipodi:nodetypes="cccccccscsscccsssssccccscccccscccsssccscssccccccc" />
  <circle
     style="opacity:0.99823531;fill:#000000;fill-opacity:1;stroke:none;stroke-width:6;stroke-linecap:round;stroke-linejoin:miter;stroke-miterlimit:4;stroke-dasharray:none;stroke-dashoffset:0;stroke-opacity:1"
     id="path3159"
     cx="105.34115"
     cy="125.82369"
     r="42.22028" />
  <circle
     r="42.22028"
     cy="125.82369"
     cx="445.96576"
     id="circle3161"
     style="opacity:0.99823531;fill:#000000;fill-opacity:1;stroke:none;stroke-width:6;stroke-linecap:round;stroke-linejoin:miter;stroke-miterlimit:4;stroke-dasharray:none;stroke-dashoffset:0;stroke-opacity:1" />
  <path
     style="fill:#b3b3b3;fill-rule:evenodd;stroke:#000000;stroke-width:1px;stroke-linecap:butt;stroke-linejoin:miter;stroke-opacity:1"
     d="m 186.91931,43.529913 10.73397,5.72478 c 20.97447,-5.32976 40.30286,-18.8899 59.39464,-33.6331 l 11.44956,-5.00919 -4.29358,-2.8623901 -22.89914,10.5871701 -40.07349,20.18354 z"
     id="path3163"
     inkscape:connector-curvature="0"
     sodipodi:nodetypes="cccccccc" />
  <path
     style="fill:#cccccc;fill-rule:evenodd;stroke:#000000;stroke-width:1px;stroke-linecap:butt;stroke-linejoin:miter;stroke-opacity:1"
     d="m 244.88275,35.658333 c 0,0 18.82186,-16.08837 30.77071,-19.32115 10.17297,-2.75231 20.94978,-2.64793 31.48632,-2.86239 14.32687,-0.2916 42.93588,2.1468 42.93588,2.1468 l -7.87158,27.19272 c 0,0 -59.89145,15.35785 -86.58736,4.29359 -6.24041,-2.58637 -10.73397,-11.44957 -10.73397,-11.44957 z"
     id="path3165"
     inkscape:connector-curvature="0"
     sodipodi:nodetypes="cssccsc" />
  <path
     style="fill:#cccccc;fill-rule:evenodd;stroke:#000000;stroke-width:1px;stroke-linecap:butt;stroke-linejoin:miter;stroke-opacity:1"
     d="m 368.6812,15.621593 50.80746,12.88076 c 0,0 2.64428,3.74841 2.14679,5.72478 -0.61896,2.45893 -5.72478,5.00919 -5.72478,5.00919 l -57.24784,5.72478 z"
     id="path3167"
     inkscape:connector-curvature="0"
     sodipodi:nodetypes="ccsccc" />
  <path
     style="fill:#999999;fill-rule:evenodd;stroke:#000000;stroke-width:1px;stroke-linecap:butt;stroke-linejoin:miter;stroke-opacity:1"
     d="m 179.76333,119.38328 37.9267,-5.00918 122.36725,-5.00919 c 0,0 8.58718,0 12.88077,0 2.86239,0 17.88995,7.87158 17.88995,7.87158 z"
     id="path3169"
     inkscape:connector-curvature="0"
     sodipodi:nodetypes="cccscc" />
  <circle
     r="25.761526"
     cy="125.82369"
     cx="445.96576"
     id="circle3171"
     style="opacity:0.99823531;fill:#1a1a1a;fill-opacity:1;stroke:none;stroke-width:6;stroke-linecap:round;stroke-linejoin:miter;stroke-miterlimit:4;stroke-dasharray:none;stroke-dashoffset:0;stroke-opacity:1" />
  <circle
     style="opacity:0.99823531;fill:#1a1a1a;fill-opacity:1;stroke:none;stroke-width:6;stroke-linecap:round;stroke-linejoin:miter;stroke-miterlimit:4;stroke-dasharray:none;stroke-dashoffset:0;stroke-opacity:1"
     id="circle3173"
     cx="105.34115"
     cy="125.82369"
     r="25.761526" />
</svg>
